<svg xmlns="http://www.w3.org/2000/svg" xmlns:xlink="http://www.w3.org/1999/xlink" version="1.1" width="256" height="256" viewBox="0 0 256 256" xml:space="preserve">

<defs>
</defs>
<g style="stroke: none; stroke-width: 0; stroke-dasharray: none; stroke-linecap: butt; stroke-linejoin: miter; stroke-miterlimit: 10; fill: none; fill-rule: nonzero; opacity: 1;" transform="translate(1.4065934065934016 1.4065934065934016) scale(2.81 2.81)" >
	<path d="M 81.276 24.925 H 58.726 v -5.601 h 22.553 v 5.601 L 81.276 24.925 z M 43.713 47.894 c 1.455 2.254 2.182 4.99 2.182 8.203 c 0 3.322 -0.82 6.303 -2.488 8.935 c -1.061 1.742 -2.378 3.214 -3.961 4.398 c -1.783 1.37 -3.893 2.31 -6.32 2.812 C 30.693 72.746 28.058 73 25.22 73 H 0 V 17 h 27.045 c 6.817 0.111 11.65 2.086 14.504 5.965 c 1.712 2.379 2.561 5.233 2.561 8.551 c 0 3.424 -0.859 6.163 -2.588 8.244 c -0.962 1.167 -2.383 2.228 -4.264 3.187 C 40.107 43.99 42.268 45.633 43.713 47.894 z M 12.915 39.078 h 11.85 c 2.435 0 4.404 -0.463 5.92 -1.388 c 1.515 -0.924 2.271 -2.566 2.271 -4.924 c 0 -2.605 -1.001 -4.334 -3.008 -5.166 c -1.725 -0.578 -3.932 -0.876 -6.61 -0.876 H 12.915 V 39.078 z M 34.097 55.297 c 0 -2.909 -1.189 -4.92 -3.562 -5.999 c -1.327 -0.613 -3.199 -0.927 -5.6 -0.949 h -12.02 v 14.924 h 11.834 c 2.431 0 4.313 -0.318 5.671 -0.982 C 32.869 61.07 34.097 58.747 34.097 55.297 z M 89.643 46.187 c 0.272 1.832 0.396 4.49 0.346 7.965 H 60.783 c 0.161 4.031 1.553 6.85 4.192 8.464 c 1.592 1.012 3.522 1.506 5.781 1.506 c 2.383 0 4.325 -0.602 5.82 -1.841 c 0.815 -0.656 1.533 -1.583 2.154 -2.752 h 10.705 c -0.28 2.381 -1.569 4.796 -3.886 7.25 c -3.589 3.9 -8.622 5.856 -15.086 5.856 c -5.34 0 -10.046 -1.649 -14.131 -4.936 c -4.071 -3.299 -6.116 -8.648 -6.116 -16.069 c 0 -6.959 1.836 -12.285 5.519 -15.992 c 3.697 -3.714 8.469 -5.563 14.35 -5.563 c 3.486 0 6.629 0.623 9.432 1.876 c 2.795 1.254 5.105 3.228 6.924 5.94 C 88.091 40.279 89.149 43.041 89.643 46.187 z M 79.107 47.232 c -0.196 -2.788 -1.127 -4.897 -2.803 -6.339 c -1.662 -1.446 -3.738 -2.172 -6.216 -2.172 c -2.696 0 -4.778 0.776 -6.258 2.301 c -1.489 1.522 -2.416 3.591 -2.796 6.21 L 79.107 47.232 L 79.107 47.232 z" style="stroke: none; stroke-width: 1; stroke-dasharray: none; stroke-linecap: butt; stroke-linejoin: miter; stroke-miterlimit: 10; fill: rgb(65,118,250); fill-rule: nonzero; opacity: 1;" transform=" matrix(1 0 0 1 0 0) " stroke-linecap="round" />
</g>
</svg>